<svg height="245.20029" viewBox="0 0 464.8996 245.20029" width="464.8996" xmlns="http://www.w3.org/2000/svg" xmlns:xlink="http://www.w3.org/1999/xlink"><linearGradient id="a" gradientUnits="userSpaceOnUse" x1="403.84961" x2="444.4278" y1="274.38586" y2="45.408928"><stop offset="0" stop-color="#d52034"/><stop offset="1" stop-color="#ff9140"/></linearGradient><linearGradient id="b" gradientUnits="userSpaceOnUse" x1="403.84961" x2="456.97305" y1="274.38586" y2="27.487112"><stop offset="0" stop-color="#e2021c"/><stop offset="1" stop-color="#ff9140"/></linearGradient><g transform="translate(-18.700052 -21.49971)"><g fill="url(#a)"><path d="m75.372681 49.120651c3.350429-.37227 6.204499 1.73726 6.204499 3.47452 0 1.98544-2.10953 3.59861-5.832229 5.21178-7.07313 3.22634-17.12442 8.06585-22.95665 11.1681-2.60589-.62045-5.21178-4.46724-5.45996-8.56221-.12409-2.23362-.24818-4.83951-.24818-7.4454 0-4.59133.24818-9.430839.99272-13.649899.49636-3.10225 2.23362-5.58405 2.23362-7.4454 0-4.9636-6.824949-9.18266-14.022169-9.18266-2.97816 0-6.45268 2.10953-7.56949 4.9636l.24818.74454c.86863-.24818 1.73726-.24818 2.4818-.24818 6.70086 0 6.70086 4.71542 6.70086 7.32131 0 1.2409-.24818 6.82495-.24818 7.94176 0 15.511249 0 25.190269 7.941759 29.285239-13.898079 8.065849-26.182989 19.358039-26.182989 30.526139 0 16.62806 14.27035 22.21211 37.847449 22.21211 13.27763 0 23.825279-.99272 29.905689-1.73726 6.2045-.86863 11.29219-2.10953 11.29219-5.21178 0-4.46724-6.2045-5.45996-13.52581-6.2045-2.97816 2.35771-14.146259 4.21906-28.168429 4.21906-16.628059 0-30.153869-1.11681-30.153869-14.02217 0-16.62806 31.891129-31.518859 58.570478-38.716079 5.70814-1.36499 9.43084-2.60589 9.43084-6.57677 0-4.59133-7.32131-11.78855-13.27763-11.78855-2.85407 0-5.708139 1.36499-6.700859 3.22634z" stroke-width="2.8858" transform="scale(.95135292 1.0511346)"/><path d="m142.08575 64.374672c-.73128 3.737638-12.59421 5.68771-17.22564 6.256481.32502-1.950072.56878-3.656385.89379-5.037686.40626-1.787566 1.95007-3.087614 1.95007-4.387661 0-2.600096-4.06265-5.037686-10.15663-5.037686-2.60009 0-5.28144 1.62506-6.25648 3.737638l.16251.406265c5.03769-.406265 5.85022.975036 5.85022 4.143902 0 1.462554-.0813 4.387662-.16251 7.069011-1.95007.08125-4.22516.243759-6.01272.243759-4.71268 0-7.88154-.893783-9.66911-2.762602l-.73128.731277c1.13755 4.143903 4.95644 7.962794 11.61918 7.962794 1.46256 0 3.08762-.08125 4.63142-.162506-.0813 3.737638-.0813 7.881541-.1625 11.862938-12.35046 5.200192-19.906987 14.788044-19.906987 24.538404 0 6.09398 5.037687 8.77533 9.344097 8.77533 6.17523 0 11.86294-2.6001 16.90062-6.33774 1.3813 1.86882 2.92511 2.6001 3.90015 2.6001 2.68134 0 3.49387-3.08762 3.49387-4.63142 0-1.13755-.56877-2.11258-1.30004-3.41263 7.55653-7.88154 11.94419-17.306888 11.94419-21.207032v-.650024c8.36906 2.112578 12.51296 8.287806 12.51296 16.413106-.0812 9.99412-8.61282 18.8507-26.81349 21.45079l.48752 1.54381c25.67595-2.27509 35.75132-10.56289 35.75132-22.58834 0-11.050403-9.3441-18.363173-22.50708-19.90698-.56877-1.787566-1.86882-3.25012-3.9814-4.387662l-.65002.487518c.48751 1.056289.73127 2.193831.65002 3.575132-3.16887 0-7.47528 0-13.32549 1.787566.1625-3.818891.32501-7.475276.65002-10.319131 5.3627-.568771 11.53793-1.462554 16.49436-2.518843 7.47528-1.543807 12.43171-2.600096 12.43171-5.606457 0-3.168867-6.41899-4.387662-10.48164-4.87518zm-7.96279 23.888382c.56877 0 1.3813 0 2.11257.08125-1.30004 4.956433-5.5252 12.106696-10.48163 16.819376-2.43759-5.443956-2.43759-11.456678-2.43759-14.869304 3.16886-1.137542 7.63778-2.031325 10.80665-2.031325zm-29.7386 22.263326c0-6.17523 4.55017-12.269207 12.43171-16.981881 0 6.662741.65002 12.106701 2.60009 17.063131-3.49388 2.60009-7.15026 4.30641-10.07537 4.30641-3.81889 0-4.95643-1.05629-4.95643-4.38766z" stroke-width="1.8896" transform="scale(.99061923 1.0094696)"/><path d="m165.24004 73.069995c4.95526-5.141086 12.1404-12.016515 18.76806-16.538193 2.29181-1.54852 4.52168-1.734343 4.52168-3.654508 0-1.796283-3.90227-5.203027-6.81349-5.203027-.86717 0-1.54852 1.238816-2.78733 1.734343-2.29181.867171-11.52099 2.601513-15.67103 2.601513-2.35375 0-3.84033-1.238816-3.77839-3.592566l-.3097-.123882c-1.23882.74329-1.85822 2.415691-1.85822 3.530626 0 3.220921 3.0351 6.503784 6.00825 6.503784 1.42464 0 1.79629-.619408 3.22093-1.486579 3.53062-2.105988 11.89263-4.026152 12.82174-4.026152.37165 0 .55747.123881.55747.309704 0 .185822-.12388.371644-.43359.681348-7.37095 7.309015-19.20165 19.139708-24.40467 24.156912-1.61046 1.54852-3.28286 3.09704-3.28286 5.636613 0 .991053 1.11493 3.406744 3.03509 3.406744 1.79629 0 2.7254-1.920165 3.77839-3.406744 7.7426-11.025462 19.13971-11.954574 21.36958-11.954574 6.87543 0 10.28217 3.90227 10.28217 10.90158 0 4.273916-2.53957 8.547831-6.56572 10.03441.18582-.433586.3097-1.176875.3097-1.672402-.18582-4.769441-5.94632-8.238126-11.02546-8.238126-5.88438 0-9.66277 3.90227-9.66277 7.618718 0 4.893324 4.76945 8.48589 12.94563 8.48589 12.63592 0 20.37852-6.441843 20.37852-15.547141 0-7.618718-4.21197-14.122502-15.98072-14.122502-4.33586 0-10.22023 1.672402-14.98968 4.211974zm1.3627 16.538194c.0619-2.229869 1.73434-3.716448 4.64556-3.716448 3.77839 0 6.93737 3.282862 7.30901 6.627665.0619.495527.37165.929112.61941 1.238816-1.30076.247763-2.60151.371645-3.65451.371645-4.27391 0-8.91947-.867171-8.91947-4.521678z" stroke-width="1.44048" transform="scale(1.0079126 .99214952)"/><path d="m301.68839 94.070669-2.85338.49624v-68.481119c3.7218-.49624 4.71428-1.36466 4.9624-3.1015l-17.86464-1.73684v75.800659l-37.96236 7.195481 1.11654 2.23308 36.84582-6.823301v38.086421c10.91728 0 12.90224-4.46616 12.90224-4.71428v-35.853341l15.5075-2.85338c2.4812-.37218 3.59774-1.2406 4.09398-2.60526l-11.53758-8.93232zm-52.84956-31.38718c3.22556 0 4.83834-.49624 5.83082-2.10902l-11.66164-9.304499-6.32706 8.932319h-3.47368v-22.827039c4.71428-1.11654 8.93232-2.23308 12.53006-3.34962 1.73684.49624 3.1015.74436 4.3421.74436 1.61278 0 2.72932-.37218 3.47368-1.11654l-15.13532-12.28194c-8.56014 6.07894-25.68042 15.63156-38.83078 21.33832l.49624 1.61278c6.45112-.99248 13.52254-2.35714 20.22178-3.84586v19.725539h-19.8496l.6203 2.4812h17.24434c-3.34962 18.11276-9.55262 37.466121-18.98118 51.484901l1.73684 1.61278c7.56766-6.8233 14.01878-14.76314 19.2293-23.447341v45.530021h2.23308c6.45112 0 10.5451-2.97744 10.66916-3.84586v-54.958581c3.84586 5.21052 7.07142 12.90224 7.4436 18.73306 1.61278 1.8609 3.47368 2.605261 5.08646 2.605261 3.34962 0 6.32706-2.977441 6.32706-6.947361 0-5.08646-4.59022-11.90976-18.85712-16.62404v-14.14284zm8.0639-27.789439c5.70676 4.46616 11.04134 12.406 12.406 19.10524 1.73684 1.61278 3.47368 2.23308 5.21052 2.23308 3.59774 0 6.69924-3.22556 6.69924-7.31954 0-5.45864-5.83082-12.65412-23.5714-15.01126zm-3.7218 32.999959c6.07894 3.96992 11.90976 11.41352 13.77066 17.74058 1.73684 1.36466 3.47368 1.98496 5.08646 1.98496 3.7218 0 6.8233-3.22556 6.8233-7.19548 0-5.5827-6.203-12.65412-25.06012-13.6466z" stroke-width="2.8851" transform="scale(.98826679 1.0118725)"/><path d="m354.05384 44.150019c3.14888 4.198506 5.43898 11.25963 5.15272 16.889446 1.33589 1.717571 2.95804 2.480935 4.58019 2.480935 3.05346 0 5.91607-2.862618 5.91607-6.584021 0-4.198506-3.62598-9.54206-14.88561-13.358884zm14.69478 58.779091v-6.393182c2.95804-.286261 3.53056-.954206 3.62598-2.194673l-1.90841-.09542c6.39318-2.576356 13.74056-6.011498 18.22533-8.683275 2.09926-.190841 3.2443-.381682 4.00767-1.145047l-2.67178-2.576356c4.77103-2.385515 10.78253-6.39318 14.40851-9.351219 2.00383-.190841 3.05346-.381682 3.72141-1.240468l-10.40085-9.828322-5.91608 6.011498h-14.02683c6.96571-4.961871 14.12225-11.355051 18.5116-16.412343.57252.09542 1.04963.190841 1.52673.190841 1.24047 0 1.90841-.477103 2.29009-1.240468l-13.83598-5.534396c-2.48094 6.870284-6.96571 16.221502-10.97337 22.996365h-41.98507c-.28626-1.526729-.85878-3.14888-1.52673-4.866451l-1.33588.09542c.38168 5.438974-3.33972 9.828322-6.96571 11.355052-2.29009.954206-4.1985 2.958038-4.1985 5.343553 0 2.671777 2.38551 4.293927 5.34355 4.293927 4.96187 0 9.2558-4.007665 9.2558-11.355051 0-.954206 0-1.908412-.19084-2.958039h58.68367c-.95421 3.530562-2.48094 8.110751-3.72141 11.259631l-5.82065-5.629815-6.0115 5.629815h-40.36292l.57253 1.908412h39.59955c-2.67178 3.625983-6.87029 8.301592-10.21001 11.450472l-8.11075-.477103v9.446642h-39.02702l.57252 1.90841h38.4545v15.36272c0 1.33589-.4771 1.90841-2.00383 1.90841h-16.12608v1.24047c9.35122.9542 13.4543 2.48093 13.4543 9.92374 13.26347-1.14505 15.07646-6.10692 15.07646-13.07262v-15.36272h34.54225c2.7672 0 3.91225-.4771 4.67561-1.62215l-11.06879-8.206172-6.10691 7.919912zm-36.92778-56.393576c3.62599 3.816824 6.58403 10.496266 6.96571 15.744399 1.33589 1.431309 2.7672 2.099253 4.19851 2.099253 2.86261 0 5.34355-2.576356 5.34355-5.916077 0-4.103086-3.91225-9.44664-15.83982-12.59552z" stroke-width="2.21908" transform="scale(.97707404 1.0234639)"/><path d="m457.48248 126.46444c34.9231-2.8845 47.28526-18.74927 47.28526-39.249856 0-22.14887-14.73157-37.395533-40.38305-37.395533-28.12392 0-46.66716 21.118689-46.66716 43.473595 0 14.422524 6.2841 23.179054 15.04063 23.179054 15.55572 0 28.94806-30.08126 28.94806-49.860716 0-6.490134-3.29658-10.507836-6.90221-12.259142 2.67847-.721125 6.59315-1.236215 9.27162-1.236215 21.22171 0 28.74202 14.319501 28.74202 33.583867 0 15.967786-9.68369 32.553686-35.85026 37.807606zm-3.60563-64.901338c0 18.02815-11.53802 43.267558-20.80964 43.267558-3.70864 0-5.66599-4.63581-5.66599-11.950086 0-17.719096 9.27162-32.96576 24.41527-37.910624 1.1332 1.03018 2.06036 3.502612 2.06036 6.593152z" stroke-width="2.39576" transform="scale(.95806372 1.0437719)"/><path d="m53.096001 141.2h105.999999v122.6h-105.999999z"/></g><path d="m109.13108 201.01853c2.79802 0 4.36492-.5596 5.26029-2.01458l-10.07289-8.17023-5.372212 7.94639h-3.917235v-19.81002c1.902657-.33576 2.798025-.78344 3.133788-1.45497h12.758989c1.90266 0 3.24571-.22384 4.14108-.67152h.11192c-2.1265 2.35034-4.70068 4.8126-7.61063 7.16294l1.23114 1.45497c2.46226-1.11921 4.70068-2.35034 6.71526-3.58147v41.52269c9.6252 0 11.30402-3.91723 11.30402-4.02916v-4.36491h22.04843v6.71526c8.72984 0 11.63979-3.58148 11.63979-3.80532v-27.08488c2.23842-.44768 3.80531-1.45497 4.47684-2.23842l-12.64708-8.95368-4.58876 6.04373h-20.36962l-10.85634-4.47684c16.22855-10.29673 20.14578-23.72725 21.48884-36.03856h14.32588c-.5596 14.21397-1.56689 21.26499-3.35763 22.83189-.67152.5596-1.34305.67152-2.90994.67152-2.01458 0-7.27487-.11192-9.84905-.22384v1.56689c7.61063 1.5669 8.84176 3.58148 8.84176 10.07289 14.88549 0 17.34775-6.04373 18.46696-32.23324 2.01458-.33577 3.35763-1.00729 4.14108-1.90266l-11.63978-8.61792-4.70069 5.59605h-39.84387l.67153 2.23842h13.43052c-.33577 9.51329-1.5669 20.14578-9.51329 30.33059l-10.85634-7.94639-5.819888 7.83447h-4.588761v-19.25041h14.102049c2.90994 0 4.25299-.44768 5.14836-1.90266l-10.40865-7.38678-5.484129 7.05102h-3.35763v-13.76628c3.133788-.44769 4.141077-1.11921 4.252998-2.68611l-15.221256-1.34305v17.79544h-17.459676l.671526 2.23842h16.78815v19.25041h-21.376911l.559605 2.1265h21.26499v41.41077c-3.021867-2.35034-5.59605-5.37221-7.83447-9.28944 1.007289-6.3795 1.566894-12.87092 1.902657-18.80273 2.909946-.33576 3.805314-1.23113 4.029156-2.6861l-15.221256-.78345c0 15.66894-.447684 39.28427-5.484129 52.37903l1.566894 1.34305c6.71526-6.9391 10.296732-16.90007 12.423231-27.30873 8.95368 19.81002 23.50341 24.28686 50.36445 24.28686h35.81472c.22384-4.36492 2.35034-8.28215 6.71526-9.17752v-1.56689c-10.07289.33576-32.79285.33576-42.19422.33576-13.09475 0-23.27957-.55961-31.337877-3.13379v-23.50341zm39.73195 11.75171h-22.04843v-24.84647h22.04843z" fill="#fff" stroke-width="2.60286" transform="scale(.92903994 1.07638)"/><g fill="url(#a)"><path d="m256.27178 216.44993c-3.13065 10.64422-3.235 10.64422-8.76582 10.64422h-24.83649c-4.1742 0-4.48726-.20871-4.48726-3.75678v-5.84389h19.72309v4.80033c7.93098 0 10.95728-2.92194 10.95728-3.02629v-22.64504c1.98274-.52177 3.44371-1.35661 4.06984-2.19145l-11.68776-8.24405-4.38291 5.63517h-47.69023l-11.68776-4.59162v37.25474c9.18324 0 10.85292-3.65243 10.85292-3.96549v-3.0263h18.99261v5.21775c0 10.64422 2.50452 12.62696 14.81841 12.62696h24.83649c11.89647 0 15.13147-2.29581 15.13147-6.15694 0-1.66968-.52177-1.87839-4.69597-3.54807v-9.18325zm-18.36648-13.04437h-19.72309v-9.49631h19.72309zm-19.72309 2.0871h19.72309v9.91372h-19.72309zm-10.85292-2.0871h-18.99261v-9.49631h18.99261zm-18.99261 2.0871h18.99261v9.91372h-18.99261zm59.89977-46.02056h-30.05424v-9.91372h30.26295c2.81758 0 4.1742-.41742 4.90468-1.87839l-11.16598-7.72227-5.94824 7.51356h-62.29993l.62613 2.0871h32.66311v9.91372h-29.74117c-.41742-1.35661-.9392-2.81758-1.56533-4.38291l-1.46097.10436c.52178 4.27855-2.50452 8.13969-5.73952 9.39195-2.50452 1.04355-4.59162 3.02629-4.59162 5.73952 0 3.13065 2.71323 4.80033 5.84388 4.80033 5.21775 0 8.3484-4.48726 8.3484-10.22679 0-1.04355-.10436-2.19145-.31307-3.33936h29.2194v27.1323h1.98275c5.63517 0 8.97453-1.87839 8.97453-2.40016v-24.73214h30.99343c-.31306 2.60888-.73048 5.94824-1.25226 8.66147l-7.51356-4.90469-4.38291 5.1134h-14.6097l.62613 2.0871h22.01891c1.66968 0 2.81758-.20871 3.54807-.62613l-.20871 1.04355 1.25226.73048c3.65242-2.19145 8.3484-6.2613 11.16598-9.18324 1.98275-.20871 3.13065-.41742 3.86114-1.25226l-9.91373-9.39195zm-56.76912 10.95728h-13.4618l.52178 2.0871h20.66229c2.50452 0 3.86113-.41742 4.59162-1.77404l-8.13969-5.3221zm46.33362 10.53985h-16.48809l.62613 2.0871h24.73213c2.50452 0 3.86114-.41742 4.69598-1.77403l-8.97453-5.73953zm-46.22927 0h-15.44454l.62613 2.0871h23.06246c2.50452 0 3.86113-.41742 4.59162-1.77403l-8.45276-5.53082z" stroke-width="2.42683" transform="scale(.98840065 1.0117355)"/><path d="m352.44595 175.17774c-3.44406 13.37107-8.10368 28.97065-12.15552 39.60673l-4.9635.30389c-1.51944-3.54536-5.0648-7.4959-11.54775-11.14256l-1.11425.50648c1.51944 2.5324 2.83628 5.87517 3.64665 9.42053-3.84925.40518-7.5972.81037-10.93997 1.11425 5.97647-9.52182 11.95293-22.28512 16.61255-33.93416h1.11425c2.32981 3.74796 3.95055 8.91405 3.84925 12.96589 1.21555 1.51944 2.6337 2.12722 4.05184 2.12722 2.6337 0 5.0648-2.43111 5.0648-5.67258 0-2.22851-1.11425-4.86221-4.05184-7.29331 4.25443-5.57128 8.40757-12.86459 11.75034-19.75272 2.5324 0 3.44406-.60777 3.74795-1.92462l-12.96589-3.74795c-1.41814 7.90108-3.34277 16.81513-5.16609 23.50067-1.11426-.70908-2.22852-1.31685-3.64666-1.82333l.1013-.30389-12.15552-3.74795c-3.03888 13.37107-7.49591 29.27454-11.24386 39.80933-3.84925.30388-6.98942.60777-9.21793.70907.70907-.40519 1.21555-.70907 1.21555-.91167v-34.44064c2.93758 3.74796 5.36868 9.52183 5.46998 14.18144 1.21555 1.31685 2.5324 1.92463 3.74795 1.92463 2.6337 0 4.86221-2.32981 4.86221-5.46999 0-2.3298-1.21555-5.0648-4.45702-7.5972 4.15313-5.67257 8.20497-13.26977 11.54774-20.36049 2.4311 0 3.34277-.70907 3.64666-1.92462l-12.7633-3.54536c-1.31685 8.10368-3.03888 17.5242-4.76091 24.31103-1.92463-1.11425-4.25443-2.12721-7.09072-3.03888l-.20259.2026v-1.41815c1.82332-.40518 3.14017-1.11425 3.64665-1.82333l-10.0283-7.19201-3.64666 4.86221h-6.28035l-2.12721-.91167c3.44406-8.71145 5.77387-18.13198 7.09072-28.26158h12.96588c2.6337 0 4.05184-.50648 4.76091-1.82333l-10.12959-7.19201-5.46999 6.98942h-24.10845l.50648 2.02592h11.14256c-1.82332 18.03069-5.26739 36.56785-12.05422 50.5467l1.41814 1.31685c2.12722-2.5324 4.05184-5.1661 5.77388-7.90109v34.94712h1.62073c4.55832 0 7.39461-2.12721 7.39461-2.83629v-9.82571h8.40757v6.78683c2.32981 0 4.35573 0 7.5972-1.41814l4.15313 10.83867c1.11426-.30389 2.22851-1.01296 2.73499-2.32981 7.19202-3.34276 12.8646-6.07776 17.11903-8.10368.40518 2.43111.60777 4.96351.50648 7.29332 1.11425 1.51944 2.5324 2.12721 3.84925 2.12721 1.82332 0 3.64665-1.31685 4.45702-3.44406l1.51944 3.84925c1.11426-.2026 2.12722-.91167 2.73499-2.32981 6.98943-3.24147 12.56071-5.87517 16.61255-8.00239.70907 3.14018 1.11425 6.48295.91166 9.52183 1.21555 1.51944 2.6337 2.22851 3.95054 2.22851 2.83629 0 5.2674-2.83629 5.2674-7.09072 0-4.86221-3.34277-11.54774-13.47237-17.52421l-1.21555.60778c1.51944 2.63369 2.93758 6.07776 3.95054 9.72441-4.35573.40519-8.61016.81037-12.35811 1.11426 6.28035-9.52182 12.45941-21.87994 17.42291-33.52898 2.6337.1013 3.44406-.60777 3.84925-1.82332zm-46.69745-18.53717h56.21927c2.6337 0 4.05184-.40518 4.76092-1.82333l-10.3322-7.29331-5.57128 7.09072h-8.10368c4.96351-5.0648 10.63608-11.44645 14.18144-16.00477 2.43111.1013 3.44407-.40518 3.84925-1.62073l-14.89051-4.25444c-1.31685 6.28036-3.44406 15.397-5.46998 21.87994h-35.14971zm-18.84106 19.04365h8.40757v33.12379h-8.40757zm24.81752-42.03784c3.74795 4.35573 6.78683 11.64904 6.98942 17.42291 1.31685 1.51944 2.83629 2.12722 4.35573 2.12722 2.93758 0 5.57128-2.735 5.57128-6.38165 0-4.45703-3.95054-10.2309-16.10606-13.77626z" stroke-width="2.35571" transform="scale(.95493142 1.0471956)"/><path d="m512.2126 208.46954c-2.57036 7.8396-4.49813 12.20921-5.91183 13.87995-1.28518 1.4137-3.21295 1.54221-6.16887 1.54221h-28.01692c-5.26924 0-5.52628-.12851-5.52628-3.46998v-32.00099h12.59477v4.62665c8.61071 0 12.08069-2.95591 12.08069-3.08443v-25.44657c2.44184-.51407 4.11258-1.54221 4.88369-2.44184l-13.36588-9.25329-4.88368 6.16886h-22.49065c4.49813-5.65479 8.73922-12.20921 12.33773-19.53474h34.57134c-.64259 35.72801-2.05629 53.07794-5.39776 56.41941-1.02814 1.02814-1.79925 1.15666-3.85554 1.15666-2.69887 0-9.12477-.12852-12.72328-.25704v1.92777c9.2533 1.92777 11.05255 3.59851 11.05255 11.30959 7.06849 0 10.79551-1.4137 14.52253-4.88369 5.78331-5.0122 7.32553-21.84806 8.09664-62.71678 2.69888-.38556 4.24109-1.15666 5.14072-2.31333l-12.72328-10.0244-5.52628 6.81145h-32.00098c1.92777-3.98405 3.5985-8.09663 5.14072-12.46624 3.34147-.12852 4.36961-.89963 4.88368-2.57036l-18.24955-5.14072c-3.21295 19.2777-9.63885 38.81243-16.96438 50.37905l-7.58256-5.39775-4.88369 6.4259h-9.51033l-3.08443-1.28518c4.62665-11.05255 7.58256-23.13324 9.38181-36.11356h18.89215c3.46999 0 5.14072-.51407 6.16886-2.18481l-13.10883-9.38181-7.06849 8.99626h-34.44283l.64259 2.57036h15.29364c-2.31332 23.39028-7.06849 47.16611-16.4503 65.15863l1.79925 1.67073c3.08443-3.5985 6.04035-7.32552 8.61071-11.18106v44.9813h2.05629c5.91182 0 9.63885-2.8274 9.63885-3.72702v-12.72329h12.46624v8.86775c8.48219 0 11.95218-3.08444 11.95218-3.21295v-46.90908c2.44184-.51407 4.24109-1.54221 5.0122-2.44184l-3.5985-2.57036c2.95591-2.44184 5.78331-5.26924 8.48218-8.48219l.51408 1.4137h24.2899v24.2899h-10.92403l-14.00846-5.52627v39.9691c0 11.56662 3.34146 14.2655 17.47845 14.2655h28.53099c14.90809 0 19.02067-2.95592 19.02067-7.71108 0-1.79925-.77111-2.31333-5.91183-4.11258v-14.2655zm-92.14741-37.91281h12.46624v41.76835h-12.46624z" stroke-width="2.9888" transform="scale(.8794852 1.1370288)"/></g><g fill="url(#b)" stroke-width=".480899"><path d="m171.99999 247.18239v18.42472c8.6437-1.2614 13.31709-5.4385 16.21211-9.28474l-1.98516-1.92312c-2.70891 3.63946-6.45175 6.47244-11.33193 7.73384v-14.9507z"/><path d="m208.92843 255.12301v2.70891h18.56947v-2.70891z"/><path d="m252.34997 247.53393v5.45917c0 4.44592-.82715 7.71316-4.05302 10.93904l2.17126 2.06787c4.44592-4.34253 4.7561-9.24338 4.7561-13.27573v-5.19035zm5.08696-.33086v18.59015c4.38389-1.17869 8.06469-4.07371 10.67021-7.79587l-1.9438-2.00584c-.66172.90987-2.77094 3.82556-5.89343 5.58325v-14.37169z"/><path d="m298.23228 250.88388c.0827-1.2614.1034-2.72959.1034-3.99099h-2.81231c0 1.2614-.0207 2.72959-.10339 3.99099h-6.78261v2.66755h6.55515c-.57901 4.05302-1.9438 7.13415-6.57583 10.07052l2.04719 2.06787c6.18293-3.92895 6.96872-9.20202 7.34094-12.13839h4.85949c-.20678 3.82556-.64104 6.38972-.82714 7.19619-.3929 1.73701-.84783 2.02651-2.19195 2.02651-.10339 0-.74443 0-2.04719-.12407l.62036 2.77094c.3929.0414.86851.0827 1.50955.0827 1.75769 0 3.37063-.22747 4.25981-2.19195 1.07529-2.37805 1.42683-9.4088 1.5509-12.42789zm3.90828-2.58484c.39289.41357.90986.99258 1.67497 2.17126l1.19937-.8685c-.57901-.90987-.95122-1.38548-1.73701-2.21262zm2.27466-.88919c.70307.72376 1.03393 1.15801 1.67497 2.17127l1.22004-.86851c-.49629-.78579-.88918-1.32343-1.73701-2.21262z"/><path d="m336.58754 251.81442c-1.88176-1.57158-3.74284-2.81231-6.307-4.07371l-1.61294 2.27466c2.85366 1.50955 4.73542 2.95705 6.1209 4.13574zm8.12673-.0827c-3.1018 5.08696-7.46501 9.45017-15.8192 11.12514l1.36479 2.81231c9.98781-2.17127 14.59916-8.66438 16.43957-11.58008z"/></g></g></svg>